<?xml version="1.0" standalone="no"?><!DOCTYPE svg PUBLIC "-//W3C//DTD SVG 1.1//EN" "http://www.w3.org/Graphics/SVG/1.1/DTD/svg11.dtd"><svg t="1490601136115" class="icon" style="" viewBox="0 0 1342 1024" version="1.1" xmlns="http://www.w3.org/2000/svg" p-id="6084" xmlns:xlink="http://www.w3.org/1999/xlink" width="262.109375" height="200"><defs><style type="text/css">@font-face { font-family: uc-nexus-iconfont; src: url("chrome-extension://pogijhnlcfmcppgimcaccdkmbedjkmhi/res/font_9qmmi8b8jsxxbt9.woff") format("woff"), url("chrome-extension://pogijhnlcfmcppgimcaccdkmbedjkmhi/res/font_9qmmi8b8jsxxbt9.ttf") format("truetype"); }
</style></defs><path d="M1214.117121 386.703323c-2.802729-8.941965-11.609258-24.686006-40.699325-29.889936l-321.450256-45.903255L711.658996 31.758939c-13.208997-26.220416-30.75832-31.758953-43.165854-31.758953-26.954957 0-42.032971 26.155088-44.969543 31.758953l-140.310138 279.151193-316.514011 45.235635c-21.749434 3.602598-37.195515 14.944171-42.299063 31.091333-5.438155 17.213123 1.266725 34.960024 19.982392 52.909282l224.809476 215.168024L315.749196 961.551211c-1.333647 7.606725-5.33618 30.624477 8.741201 47.103059 12.276878 14.279738 32.958757 17.614651 55.509653 7.872817 0.600699-0.266092 1.201397-0.532184 1.735175-0.866791l285.822612-147.515335 285.956455 147.515335c10.809389 5.670786 20.54963 8.339673 29.491595 8.339673 11.406901 0 21.615591-4.404061 28.822381-12.342206 5.87155-6.473842 12.275285-18.416114 9.472556-39.431006l-55.375811-316.913946 230.712893-220.706561C1217.187536 414.856491 1217.453628 397.644961 1214.117121 386.703323" p-id="6085"></path></svg>