<?xml version="1.0" standalone="no"?><!DOCTYPE svg PUBLIC "-//W3C//DTD SVG 1.1//EN" "http://www.w3.org/Graphics/SVG/1.1/DTD/svg11.dtd"><svg t="1490601155818" class="icon" style="" viewBox="0 0 1024 1024" version="1.1" xmlns="http://www.w3.org/2000/svg" p-id="6453" xmlns:xlink="http://www.w3.org/1999/xlink" width="200" height="200"><defs><style type="text/css">@font-face { font-family: uc-nexus-iconfont; src: url("chrome-extension://pogijhnlcfmcppgimcaccdkmbedjkmhi/res/font_9qmmi8b8jsxxbt9.woff") format("woff"), url("chrome-extension://pogijhnlcfmcppgimcaccdkmbedjkmhi/res/font_9qmmi8b8jsxxbt9.ttf") format("truetype"); }
</style></defs><path d="M691.904 96 357.12 96C315.264 96 281.024 127.2 281.024 165.344l0 693.344c0 38.144 34.24 69.344 76.096 69.344l334.784 0C733.76 928 768 896.8 768 858.656L768 165.344C768 127.2 733.76 96 691.904 96M478.88 151.456l91.296 0c8.384 0 15.232 6.176 15.232 13.856 0 7.648-6.848 13.856-15.232 13.856l-91.296 0c-8.416 0-15.232-6.208-15.232-13.856C463.68 157.664 470.496 151.456 478.88 151.456M524.544 900.256c-25.248 0-45.664-18.592-45.664-41.6 0-23.008 20.416-41.6 45.664-41.6 25.216 0 45.664 18.592 45.664 41.6C570.176 881.664 549.76 900.256 524.544 900.256M737.6 789.344 311.488 789.344 311.488 234.656 737.6 234.656 737.6 789.344z" p-id="6454"></path></svg>