<?xml version="1.0" standalone="no"?><!DOCTYPE svg PUBLIC "-//W3C//DTD SVG 1.1//EN" "http://www.w3.org/Graphics/SVG/1.1/DTD/svg11.dtd"><svg t="1490601138700" class="icon" style="" viewBox="0 0 1024 1024" version="1.1" xmlns="http://www.w3.org/2000/svg" p-id="6207" xmlns:xlink="http://www.w3.org/1999/xlink" width="200" height="200"><defs><style type="text/css">@font-face { font-family: uc-nexus-iconfont; src: url("chrome-extension://pogijhnlcfmcppgimcaccdkmbedjkmhi/res/font_9qmmi8b8jsxxbt9.woff") format("woff"), url("chrome-extension://pogijhnlcfmcppgimcaccdkmbedjkmhi/res/font_9qmmi8b8jsxxbt9.ttf") format("truetype"); }
</style></defs><path d="M1024 960.064c0 0.064 0 0.064 0 0.128 0 26.496-21.504 48-48 48L48 1008.192c-26.496 0-48-21.504-48-48 0-0.064 0-0.064 0-0.128L0 960.064c0 0 0-174.912 127.808-238.528 80.896-40.256 49.728-7.552 148.992-48.768C376.128 631.68 399.616 617.344 399.616 617.344l0.96-94.784c0 0-37.184-28.416-48.768-117.632C328.576 411.648 320.832 377.6 319.488 355.968c-1.216-20.928-13.44-86.336 14.912-80.448C328.576 231.872 324.416 192.512 326.464 171.648c7.104-73.216 77.632-149.696 186.304-155.328 127.808 5.568 178.432 82.048 185.472 155.264 2.048 20.864-2.496 60.288-8.32 103.872 28.416-5.824 16.064 59.456 14.656 80.384-1.28 21.696-9.088 55.616-32.32 48.896-11.584 89.152-48.768 117.376-48.768 117.376l0.896 94.272c0 0 23.488 13.44 122.816 54.528 99.264 41.152 68.16 10.368 148.992 50.624C1024 785.152 1024 960.064 1024 960.064L1024 960.064z" p-id="6208"></path></svg>