<?xml version="1.0" standalone="no"?><!DOCTYPE svg PUBLIC "-//W3C//DTD SVG 1.1//EN" "http://www.w3.org/Graphics/SVG/1.1/DTD/svg11.dtd"><svg t="1490601130809" class="icon" style="" viewBox="0 0 1024 1024" version="1.1" xmlns="http://www.w3.org/2000/svg" p-id="5833" xmlns:xlink="http://www.w3.org/1999/xlink" width="200" height="200"><defs><style type="text/css">@font-face { font-family: uc-nexus-iconfont; src: url("chrome-extension://pogijhnlcfmcppgimcaccdkmbedjkmhi/res/font_9qmmi8b8jsxxbt9.woff") format("woff"), url("chrome-extension://pogijhnlcfmcppgimcaccdkmbedjkmhi/res/font_9qmmi8b8jsxxbt9.ttf") format("truetype"); }
</style></defs><path d="M514.362302 22.623253c-269.188882 0-487.407905 218.22107-487.407905 487.406882 0 269.187859 218.219024 487.409952 487.407905 487.409952 269.189905 0 487.407905-218.222093 487.407905-487.409952C1001.770208 240.844324 783.552208 22.623253 514.362302 22.623253zM558.252929 199.770859l-5.320169 491.236094-77.139891 0-5.320169-491.236094L558.252929 199.770859zM514.361279 820.291458c-25.434276 0-46.051849-20.618597-46.051849-46.052872s20.617573-46.052872 46.051849-46.052872c25.434276 0 46.053895 20.618597 46.053895 46.052872S539.796578 820.291458 514.361279 820.291458z" p-id="5834"></path></svg>